<?xml version="1.0" encoding="UTF-8"?>
<svg width="98px" height="24px" viewBox="0 0 98 24" version="1.1" xmlns="http://www.w3.org/2000/svg" xmlns:xlink="http://www.w3.org/1999/xlink">
    <!-- Generator: Sketch 45.2 (43514) - http://www.bohemiancoding.com/sketch -->
    <title>logo</title>
    <desc>Created with Sketch.</desc>
    <defs>
        <path d="M0,0 L12,0 L12,12 L0,12 L0,0 Z M3,3 L3,9 L9,9 L9,3 L3,3 Z" id="path-1"></path>
        <path d="M0,0 L12,0 L12,12 L0,12 L0,0 Z M9.78,6.06 L3.18,2.1 L3.18,10.02 L9.78,6.06 Z" id="path-3"></path>
        <path d="M0,0 L12,0 L12,12 L0,12 L0,0 Z M6,9.36 C7.78940259,9.36 9.24,7.90940259 9.24,6.12 C9.24,4.33059741 7.78940259,2.88 6,2.88 C4.21059741,2.88 2.76,4.33059741 2.76,6.12 C2.76,7.90940259 4.21059741,9.36 6,9.36 Z" id="path-5"></path>
        <path d="M0,0 L12,0 L12,12 L0,12 L0,0 Z M3.84,5.28 C4.63529004,5.28 5.28,4.63529004 5.28,3.84 C5.28,3.04470996 4.63529004,2.4 3.84,2.4 C3.04470996,2.4 2.4,3.04470996 2.4,3.84 C2.4,4.63529004 3.04470996,5.28 3.84,5.28 Z M3.84,9.6 C4.63529004,9.6 5.28,8.95529004 5.28,8.16 C5.28,7.36470996 4.63529004,6.72 3.84,6.72 C3.04470996,6.72 2.4,7.36470996 2.4,8.16 C2.4,8.95529004 3.04470996,9.6 3.84,9.6 Z M8.16,5.28 C8.95529004,5.28 9.6,4.63529004 9.6,3.84 C9.6,3.04470996 8.95529004,2.4 8.16,2.4 C7.36470996,2.4 6.72,3.04470996 6.72,3.84 C6.72,4.63529004 7.36470996,5.28 8.16,5.28 Z M8.16,9.6 C8.95529004,9.6 9.6,8.95529004 9.6,8.16 C9.6,7.36470996 8.95529004,6.72 8.16,6.72 C7.36470996,6.72 6.72,7.36470996 6.72,8.16 C6.72,8.95529004 7.36470996,9.6 8.16,9.6 Z" id="path-7"></path>
    </defs>
    <g id="Page-1" stroke="none" stroke-width="1" fill="none" fill-rule="evenodd">
        <g id="01.1-Profile---Teacher-(own,-expanded)" transform="translate(-181.000000, -18.000000)">
            <g id="header">
                <g id="logo" transform="translate(178.000000, 14.000000)">
                    <path d="M42.9647264,22 L42.9647264,9.39648438 L48.6160936,9.39648438 C50.0692259,9.39648438 51.1678477,9.76855097 51.9119921,10.5126953 C52.4744949,11.0751981 52.7557421,11.7841754 52.7557421,12.6396484 C52.7557421,13.893561 52.1580918,14.8310516 50.9627733,15.4521484 C51.7655117,15.721681 52.3822048,16.0981421 52.812871,16.581543 C53.2435372,17.0649438 53.4588671,17.7197224 53.4588671,18.5458984 C53.4588671,19.6533258 53.039926,20.5058564 52.2020311,21.1035156 C51.3641363,21.7011749 50.2303586,22 48.8006639,22 L42.9647264,22 Z M45.1444139,20.0400391 L48.8182421,20.0400391 C49.585824,20.0400391 50.1820095,19.8891617 50.6068163,19.5874023 C51.0316231,19.285643 51.2440233,18.8476591 51.2440233,18.2734375 C51.2440233,17.7343723 51.0272286,17.3183608 50.5936327,17.0253906 C50.1600368,16.7324204 49.5125823,16.5859375 48.6512499,16.5859375 L45.1444139,16.5859375 L45.1444139,20.0400391 Z M45.1444139,14.7138672 L48.1678514,14.7138672 C48.9061364,14.7138672 49.4876735,14.5659194 49.9124804,14.2700195 C50.3372872,13.9741196 50.5496874,13.5390654 50.5496874,12.9648438 C50.5496874,12.4667944 50.3563299,12.075685 49.9696093,11.7915039 C49.5828886,11.5073228 49.0379722,11.3652344 48.3348436,11.3652344 L45.1444139,11.3652344 L45.1444139,14.7138672 Z M58.6249609,22 L58.6249609,9.39648438 L60.9892187,9.39648438 L64.82125,15.3554688 L68.6532812,9.39648438 L71.00875,9.39648438 L71.00875,22 L68.7939062,22 L68.7939062,12.9648438 L64.82125,18.90625 L64.7509375,18.90625 L60.8046484,13 L60.8046484,22 L58.6249609,22 Z M76.0166407,11.453125 L76.0166407,9.39648438 L86.2383204,9.39648438 L86.2383204,11.453125 L82.248086,11.453125 L82.248086,22 L80.0156641,22 L80.0156641,11.453125 L76.0166407,11.453125 Z M91.2462111,22 L91.2462111,9.39648438 L96.2208204,9.39648438 C97.6856715,9.39648438 98.8487458,9.78173443 99.7100782,10.5522461 C100.571411,11.3227578 101.00207,12.3554623 101.00207,13.6503906 C101.00207,14.5644577 100.772092,15.3510709 100.312129,16.0102539 C99.8521658,16.6694369 99.2486562,17.157225 98.5015821,17.4736328 C97.7545081,17.7900406 96.9093017,17.9482422 95.9659376,17.9482422 L93.4610548,17.9482422 L93.4610548,22 L91.2462111,22 Z M93.4610548,15.953125 L96.0362501,15.953125 C96.8624261,15.953125 97.5215992,15.7436544 98.0137892,15.324707 C98.5059791,14.9057596 98.7520704,14.3535191 98.7520704,13.6679688 C98.7520704,12.9414026 98.5103736,12.3847676 98.0269728,11.9980469 C97.5435719,11.6113262 96.8800043,11.4179688 96.0362501,11.4179688 L93.4610548,11.4179688 L93.4610548,15.953125 Z" id="BMTP" fill="#4A4A4A"></path>
                    <g id="Group-6" transform="translate(3.000000, 4.000000)">
                        <g id="body">
                            <mask id="mask-2" fill="white">
                                <use xlink:href="#path-1"></use>
                            </mask>
                            <g id="Mask"></g>
                            <g id="Mixin/Colors/Blue" mask="url(#mask-2)" fill="#0063B9">
                                <rect id="Rectangle-2" x="0" y="0" width="12" height="12"></rect>
                            </g>
                        </g>
                        <g id="play" transform="translate(12.000000, 12.000000)">
                            <mask id="mask-4" fill="white">
                                <use xlink:href="#path-3"></use>
                            </mask>
                            <g id="Mask"></g>
                            <g id="Mixin/Colors/Blue" mask="url(#mask-4)" fill="#F5A623">
                                <rect id="Rectangle-2" x="0" y="0" width="12" height="12"></rect>
                            </g>
                        </g>
                        <g id="mind" transform="translate(12.000000, 0.000000)">
                            <mask id="mask-6" fill="white">
                                <use xlink:href="#path-5"></use>
                            </mask>
                            <g id="Mask"></g>
                            <g id="Mixin/Colors/Blue" mask="url(#mask-6)" fill="#E6021D">
                                <rect id="Rectangle-2" x="0" y="0" width="12" height="12"></rect>
                            </g>
                        </g>
                        <g id="team" transform="translate(0.000000, 12.000000)">
                            <mask id="mask-8" fill="white">
                                <use xlink:href="#path-7"></use>
                            </mask>
                            <g id="Mask"></g>
                            <g id="Mixin/Colors/Blue" mask="url(#mask-8)" fill="#7ACC1D">
                                <rect id="Rectangle-2" x="0" y="0" width="12" height="12"></rect>
                            </g>
                        </g>
                    </g>
                </g>
            </g>
        </g>
    </g>
</svg>