<?xml version="1.0" encoding="UTF-8"?>
<svg width="15px" height="15px" viewBox="0 0 15 15" version="1.1" xmlns="http://www.w3.org/2000/svg" xmlns:xlink="http://www.w3.org/1999/xlink">
    <!-- Generator: Sketch 45.2 (43514) - http://www.bohemiancoding.com/sketch -->
    <title>menu_library</title>
    <desc>Created with Sketch.</desc>
    <defs></defs>
    <g id="Page-1" stroke="none" stroke-width="1" fill="none" fill-rule="evenodd">
        <g id="01.1-Profile---Teacher-(own,-expanded)" transform="translate(-179.000000, -273.000000)">
            <g id="components/menu-(game-manager)" transform="translate(163.000000, 101.000000)">
                <g id="menu-item" transform="translate(0.000000, 160.000000)">
                    <g id="menu_library" transform="translate(11.000000, 8.000000)">
                        <path d="M19.6339286,7.55357143 C19.872025,7.89285884 19.9255959,8.27678357 19.7946429,8.70535714 L17.3392857,16.7946429 C17.2261899,17.1755971 16.9985136,17.4955344 16.65625,17.7544643 C16.3139864,18.0133942 15.9494067,18.1428571 15.5625,18.1428571 L7.32142857,18.1428571 C6.86309295,18.1428571 6.42113308,17.9836325 5.99553571,17.6651786 C5.56993835,17.3467246 5.27381036,16.9553595 5.10714286,16.4910714 C4.964285,16.0922599 4.95833268,15.7142875 5.08928571,15.3571429 C5.08928571,15.3333332 5.0982142,15.2529769 5.11607143,15.1160714 C5.13392866,14.979166 5.1458333,14.869048 5.15178571,14.7857143 C5.15773812,14.738095 5.14880964,14.6741075 5.125,14.59375 C5.10119036,14.5133925 5.09226187,14.4553573 5.09821429,14.4196429 C5.11011911,14.3541663 5.13392839,14.291667 5.16964286,14.2321429 C5.20535732,14.1726188 5.25446397,14.102679 5.31696429,14.0223214 C5.3794646,13.9419639 5.42857125,13.8720241 5.46428571,13.8125 C5.60119116,13.5863084 5.73511839,13.3139897 5.86607143,12.9955357 C5.99702446,12.6770817 6.08630929,12.404763 6.13392857,12.1785714 C6.1517858,12.1190473 6.15327388,12.0297625 6.13839286,11.9107143 C6.12351183,11.7916661 6.12202375,11.7083336 6.13392857,11.6607143 C6.1517858,11.5952378 6.20238054,11.5119053 6.28571429,11.4107143 C6.36904804,11.3095233 6.41964277,11.2410716 6.4375,11.2053571 C6.56250062,10.9910704 6.68749937,10.7172636 6.8125,10.3839286 C6.93750062,10.0505936 7.01190464,9.78273911 7.03571429,9.58035714 C7.0416667,9.52678545 7.03422629,9.4315483 7.01339286,9.29464286 C6.99255942,9.15773741 6.9940475,9.07440491 7.01785714,9.04464286 C7.04166679,8.96726152 7.10714232,8.87648862 7.21428571,8.77232143 C7.32142911,8.66815424 7.38690464,8.60119063 7.41071429,8.57142857 C7.52381009,8.41666589 7.65029692,8.16518031 7.79017857,7.81696429 C7.93006022,7.46874826 8.01190464,7.18154875 8.03571429,6.95535714 C8.0416667,6.90773786 8.03273821,6.83184576 8.00892857,6.72767857 C7.98511893,6.62351138 7.97916661,6.54464313 7.99107143,6.49107143 C8.00297625,6.44345214 8.0297617,6.38988125 8.07142857,6.33035714 C8.11309545,6.27083304 8.16666634,6.20238134 8.23214286,6.125 C8.29761937,6.04761866 8.34821411,5.98511929 8.38392857,5.9375 C8.43154786,5.86607107 8.48065451,5.77529817 8.53125,5.66517857 C8.58184549,5.55505897 8.6264879,5.45089335 8.66517857,5.35267857 C8.70386924,5.25446379 8.75148781,5.14732201 8.80803571,5.03125 C8.86458362,4.91517799 8.92261875,4.81994085 8.98214286,4.74553571 C9.04166696,4.67113058 9.12053522,4.6011908 9.21875,4.53571429 C9.31696478,4.47023777 9.42410656,4.43601192 9.54017857,4.43303571 C9.65625058,4.43005951 9.79761821,4.44642839 9.96428571,4.48214286 L9.95535714,4.50892857 C10.1815487,4.45535688 10.3333329,4.42857143 10.4107143,4.42857143 L17.2053571,4.42857143 C17.6458355,4.42857143 17.9851179,4.59523643 18.2232143,4.92857143 C18.4613107,5.26190643 18.5148816,5.64880732 18.3839286,6.08928571 L15.9375,14.1785714 C15.7232132,14.8869083 15.5104177,15.343749 15.2991071,15.5491071 C15.0877966,15.7544653 14.7053599,15.8571429 14.1517857,15.8571429 L6.39285714,15.8571429 C6.23214205,15.8571429 6.11904795,15.9017853 6.05357143,15.9910714 C5.98809491,16.08631 5.98511875,16.2142849 6.04464286,16.375 C6.18750071,16.7916688 6.61606786,17 7.33035714,17 L15.5714286,17 C15.7440485,17 15.9107135,16.9538695 16.0714286,16.8616071 C16.2321437,16.7693448 16.3363093,16.6458341 16.3839286,16.4910714 L19.0625,7.67857143 C19.1041669,7.54761839 19.1190477,7.37797723 19.1071429,7.16964286 C19.3333345,7.25892902 19.5089279,7.38690393 19.6339286,7.55357143 Z M10.1339286,7.57142857 C10.1101189,7.64880991 10.1160712,7.71577353 10.1517857,7.77232143 C10.1875002,7.82886933 10.2470234,7.85714286 10.3303571,7.85714286 L15.7589286,7.85714286 C15.8363099,7.85714286 15.912202,7.82886933 15.9866071,7.77232143 C16.0610123,7.71577353 16.1101189,7.64880991 16.1339286,7.57142857 L16.3214286,7 C16.3452382,6.92261866 16.3392859,6.85565504 16.3035714,6.79910714 C16.267857,6.74255924 16.2083337,6.71428571 16.125,6.71428571 L10.6964286,6.71428571 C10.6190472,6.71428571 10.5431551,6.74255924 10.46875,6.79910714 C10.3943449,6.85565504 10.3452382,6.92261866 10.3214286,7 L10.1339286,7.57142857 Z M9.39285714,9.85714286 C9.3690475,9.9345242 9.37499982,10.0014878 9.41071429,10.0580357 C9.44642875,10.1145836 9.50595196,10.1428571 9.58928571,10.1428571 L15.0178571,10.1428571 C15.0952385,10.1428571 15.1711306,10.1145836 15.2455357,10.0580357 C15.3199408,10.0014878 15.3690475,9.9345242 15.3928571,9.85714286 L15.5803571,9.28571429 C15.6041668,9.20833295 15.5982145,9.14136933 15.5625,9.08482143 C15.5267855,9.02827353 15.4672623,9 15.3839286,9 L9.95535714,9 C9.8779758,9 9.80208371,9.02827353 9.72767857,9.08482143 C9.65327344,9.14136933 9.60416679,9.20833295 9.58035714,9.28571429 L9.39285714,9.85714286 Z" id="book---FontAwesome" fill="#000000"></path>
                        <rect id="Rectangle" x="0" y="0" width="24" height="24"></rect>
                    </g>
                </g>
            </g>
        </g>
    </g>
</svg>