<?xml version="1.0" encoding="UTF-8"?>
<svg width="9px" height="15px" viewBox="0 0 9 15" version="1.1" xmlns="http://www.w3.org/2000/svg" xmlns:xlink="http://www.w3.org/1999/xlink">
    <!-- Generator: Sketch 45.2 (43514) - http://www.bohemiancoding.com/sketch -->
    <title>menu_help</title>
    <desc>Created with Sketch.</desc>
    <defs></defs>
    <g id="Page-1" stroke="none" stroke-width="1" fill="none" fill-rule="evenodd">
        <g id="01.1-Profile---Teacher-(own,-expanded)" transform="translate(-182.000000, -354.000000)" fill="#000000">
            <g id="components/menu-(game-manager)" transform="translate(163.000000, 101.000000)">
                <g id="menu-item" transform="translate(0.000000, 240.000000)">
                    <g id="menu_help" transform="translate(19.000000, 13.000000)">
                        <path d="M7.47931985,1.33042279 C8.37546404,2.01976448 8.82352941,2.9733395 8.82352941,4.19117647 C8.82352941,4.90349621 8.60524115,5.55836098 8.16865809,6.15579044 C7.96185558,6.40854906 7.50230136,6.82214786 6.78998162,7.39659926 L6.06617647,7.87913603 C5.72150563,8.1548727 5.49172852,8.47656066 5.37683824,8.84420956 C5.30790407,9.05101206 5.2734375,9.38418888 5.2734375,9.84375 C5.2734375,9.98161834 5.19301551,10.0505515 5.03216912,10.0505515 L2.89522059,10.0505515 C2.7343742,10.0505515 2.65395221,9.99310719 2.65395221,9.87821691 C2.69990832,8.82122633 2.87224115,8.06296186 3.17095588,7.60340074 C3.33180227,7.37362017 3.57306824,7.12086535 3.89476103,6.84512868 C4.21645381,6.569392 4.50367521,6.35110375 4.75643382,6.19025735 L5.13556985,5.94898897 C5.38832847,5.74218647 5.56066131,5.56985363 5.65257353,5.43198529 C5.9283102,5.04135834 6.06617647,4.67371496 6.06617647,4.32904412 C6.06617647,3.82352688 5.93979906,3.40992808 5.68704044,3.08823529 C5.3423696,2.67463028 4.87132652,2.46783088 4.27389706,2.46783088 C3.69944566,2.46783088 3.23989143,2.74356342 2.89522059,3.29503676 C2.7343742,3.54779538 2.65395221,4.04181618 2.65395221,4.77711397 L0,4.77711397 C0,2.96184754 0.505509651,1.72105113 1.51654412,1.0546875 C2.18290774,0.595126379 3.04457192,0.365349265 4.1015625,0.365349265 C5.50322392,0.365349265 6.62913178,0.687037224 7.47931985,1.33042279 Z M3.92922794,11.4292279 C4.41176712,11.452206 4.80238821,11.61305 5.10110294,11.9117647 C5.39981767,12.2104794 5.53768394,12.6011005 5.51470588,13.0836397 C5.49172783,13.5661789 5.31939499,13.9510555 4.99770221,14.2382812 C4.67600942,14.525507 4.28538833,14.6576288 3.82582721,14.6346507 C3.36626608,14.6116727 2.98713385,14.4565731 2.68841912,14.1693474 C2.38970439,13.8821217 2.25183812,13.4972451 2.27481618,13.0147059 C2.29779423,12.5321667 2.46438264,12.1415456 2.7745864,11.8428309 C3.08479015,11.5441162 3.46966682,11.4062499 3.92922794,11.4292279 Z" id="ion-help---Ionicons"></path>
                    </g>
                </g>
            </g>
        </g>
    </g>
</svg>