<?xml version="1.0" encoding="UTF-8"?>
<svg width="14px" height="15px" viewBox="0 0 14 15" version="1.1" xmlns="http://www.w3.org/2000/svg" xmlns:xlink="http://www.w3.org/1999/xlink">
    <!-- Generator: Sketch 45.2 (43514) - http://www.bohemiancoding.com/sketch -->
    <title>menu_friends</title>
    <desc>Created with Sketch.</desc>
    <defs></defs>
    <g id="Page-1" stroke="none" stroke-width="1" fill="none" fill-rule="evenodd">
        <g id="01.1-Profile---Teacher-(own,-expanded)" transform="translate(-179.000000, -154.000000)">
            <g id="components/menu-(game-manager)" transform="translate(163.000000, 101.000000)">
                <g id="menu-item" transform="translate(0.000000, 40.000000)">
                    <g id="menu_friends" transform="translate(11.000000, 8.000000)">
                        <rect id="Rectangle" x="0" y="0" width="24" height="24"></rect>
                        <path d="M12,16.048 C11.2213294,16.048 10.5253364,15.8373354 9.912,15.416 C9.2986636,14.9946646 8.858668,14.4373368 8.592,13.744 L15.408,13.744 C15.141332,14.4373368 14.7013364,14.9946646 14.088,15.416 C13.4746636,15.8373354 12.7786706,16.048 12,16.048 Z M9.664,11.744 C9.37599856,11.744 9.13600096,11.648001 8.944,11.456 C8.75199904,11.263999 8.656,11.0240014 8.656,10.736 C8.656,10.4479986 8.75199904,10.2106676 8.944,10.024 C9.13600096,9.8373324 9.37599856,9.744 9.664,9.744 C9.95200144,9.744 10.1893324,9.83999904 10.376,10.032 C10.5626676,10.224001 10.656,10.4586653 10.656,10.736 C10.656,11.0133347 10.560001,11.2506657 10.368,11.448 C10.175999,11.6453343 9.94133472,11.744 9.664,11.744 Z M14.352,11.744 C14.0639986,11.744 13.824001,11.648001 13.632,11.456 C13.439999,11.263999 13.344,11.0240014 13.344,10.736 C13.344,10.4479986 13.439999,10.2106676 13.632,10.024 C13.824001,9.8373324 14.0639986,9.744 14.352,9.744 C14.6400014,9.744 14.8773324,9.83999904 15.064,10.032 C15.2506676,10.224001 15.344,10.4586653 15.344,10.736 C15.344,11.0133347 15.248001,11.2506657 15.056,11.448 C14.863999,11.6453343 14.6293347,11.744 14.352,11.744 Z M12,17.744 C12.9600048,17.744 13.8559958,17.4986691 14.688,17.008 C15.4986707,16.5386643 16.1386643,15.8986707 16.608,15.088 C17.0986691,14.2559958 17.344,13.3600048 17.344,12.4 C17.344,11.4399952 17.0986691,10.5440042 16.608,9.712 C16.1386643,8.90132928 15.4986707,8.26133568 14.688,7.792 C13.8559958,7.30133088 12.9600048,7.056 12,7.056 C11.0399952,7.056 10.1440042,7.30133088 9.312,7.792 C8.50132928,8.26133568 7.86133568,8.90132928 7.392,9.712 C6.90133088,10.5440042 6.656,11.4399952 6.656,12.4 C6.656,13.3600048 6.90133088,14.2559958 7.392,15.088 C7.86133568,15.8986707 8.50132928,16.5386643 9.312,17.008 C10.1440042,17.4986691 11.0399952,17.744 12,17.744 Z M12,5.744 C13.2160061,5.744 14.3413282,6.04799696 15.376,6.656 C16.3786717,7.23200288 17.1679971,8.02132832 17.744,9.024 C18.352003,10.0586718 18.656,11.1839939 18.656,12.4 C18.656,13.6160061 18.352003,14.7413282 17.744,15.776 C17.1679971,16.7786717 16.3786717,17.5679971 15.376,18.144 C14.3413282,18.752003 13.2160061,19.056 12,19.056 C10.7839939,19.056 9.65867184,18.752003 8.624,18.144 C7.62132832,17.5573304 6.83200288,16.7626717 6.256,15.76 C5.64799696,14.7253282 5.344,13.6053394 5.344,12.4 C5.344,11.1946606 5.64799696,10.0746718 6.256,9.04 C6.8426696,8.03732832 7.63732832,7.2426696 8.64,6.656 C9.67467184,6.04799696 10.7946606,5.744 12,5.744 Z" id="insert_emoticon---material" fill="#000000"></path>
                    </g>
                </g>
            </g>
        </g>
    </g>
</svg>