<?xml version="1.0" encoding="UTF-8"?>
<svg width="10px" height="14px" viewBox="0 0 10 14" version="1.1" xmlns="http://www.w3.org/2000/svg" xmlns:xlink="http://www.w3.org/1999/xlink">
    <!-- Generator: Sketch 45.2 (43514) - http://www.bohemiancoding.com/sketch -->
    <title>menu_locations</title>
    <desc>Created with Sketch.</desc>
    <defs></defs>
    <g id="Page-1" stroke="none" stroke-width="1" fill="none" fill-rule="evenodd">
        <g id="01.1-Profile---Teacher-(own,-expanded)" transform="translate(-181.000000, -233.000000)">
            <g id="components/menu-(game-manager)" transform="translate(163.000000, 101.000000)">
                <g id="menu-item" transform="translate(0.000000, 120.000000)">
                    <g id="menu_locations" transform="translate(11.000000, 8.000000)">
                        <path d="M12,11.048 C12.2986682,11.048 12.5759987,10.9733341 12.832,10.824 C13.0880013,10.6746659 13.2906659,10.4746679 13.44,10.224 C13.5893341,9.97333208 13.664,9.69866816 13.664,9.4 C13.664,9.10133184 13.5893341,8.82400128 13.44,8.568 C13.2906659,8.31199872 13.0880013,8.10933408 12.832,7.96 C12.5759987,7.81066592 12.2986682,7.736 12,7.736 C11.7013318,7.736 11.4266679,7.81066592 11.176,7.96 C10.9253321,8.10933408 10.7253341,8.31199872 10.576,8.568 C10.4266659,8.82400128 10.352,9.10133184 10.352,9.4 C10.352,9.85866896 10.5119984,10.2479984 10.832,10.568 C11.1520016,10.8880016 11.541331,11.048 12,11.048 Z M12,4.744 C12.8533376,4.744 13.6373298,4.95199792 14.352,5.368 C15.0560035,5.78400208 15.6159979,6.34399648 16.032,7.048 C16.4480021,7.76267024 16.656,8.5466624 16.656,9.4 C16.656,10.0506699 16.4960016,10.7973291 16.176,11.64 C15.8986653,12.3546702 15.5146691,13.1279958 15.024,13.96 C14.6186646,14.6213366 14.1546693,15.3093298 13.632,16.024 C13.2693315,16.5253358 12.8853354,17.0159976 12.48,17.496 L12,18.056 L11.52,17.496 C11.1146646,17.0159976 10.7306685,16.5253358 10.368,16.024 C9.84533072,15.3093298 9.38133536,14.6213366 8.976,13.96 C8.48533088,13.1279958 8.10133472,12.3546702 7.824,11.64 C7.5039984,10.7973291 7.344,10.0506699 7.344,9.4 C7.344,8.5466624 7.55199792,7.76267024 7.968,7.048 C8.38400208,6.34399648 8.94399648,5.78400208 9.648,5.368 C10.3626702,4.95199792 11.1466624,4.744 12,4.744 Z" id="place---material" fill="#000000"></path>
                        <rect id="Rectangle" x="0" y="0" width="24" height="24"></rect>
                    </g>
                </g>
            </g>
        </g>
    </g>
</svg>