<?xml version="1.0" encoding="UTF-8"?>
<svg width="16px" height="11px" viewBox="0 0 16 11" version="1.1" xmlns="http://www.w3.org/2000/svg" xmlns:xlink="http://www.w3.org/1999/xlink">
    <!-- Generator: Sketch 45.2 (43514) - http://www.bohemiancoding.com/sketch -->
    <title>menu_group</title>
    <desc>Created with Sketch.</desc>
    <defs></defs>
    <g id="Page-1" stroke="none" stroke-width="1" fill="none" fill-rule="evenodd">
        <g id="01.1-Profile---Teacher-(own,-expanded)" transform="translate(-178.000000, -196.000000)">
            <g id="components/menu-(game-manager)" transform="translate(163.000000, 101.000000)">
                <g id="menu-item" transform="translate(0.000000, 80.000000)">
                    <g id="menu_group" transform="translate(11.000000, 8.000000)">
                        <rect id="Rectangle" x="0" y="0" width="24" height="24"></rect>
                        <path d="M14.656,13.056 C15.2320029,13.056 15.8719965,13.1413325 16.576,13.312 C17.3546706,13.5146677 17.9893309,13.7759984 18.48,14.096 C19.0560029,14.4800019 19.344,14.9119976 19.344,15.392 L19.344,17.056 L15.344,17.056 L15.344,15.392 C15.344,14.4853288 14.906671,13.7173365 14.032,13.088 C14.1813341,13.0666666 14.389332,13.056 14.656,13.056 Z M9.344,13.056 C9.92000288,13.056 10.5546632,13.1413325 11.248,13.312 C12.0266706,13.5146677 12.6559976,13.7759984 13.136,14.096 C13.7120029,14.4800019 14,14.9119976 14,15.392 L14,17.056 L4.656,17.056 L4.656,15.392 C4.656,14.9119976 4.94399712,14.4800019 5.52,14.096 C6.01066912,13.7759984 6.64532944,13.5146677 7.424,13.312 C8.12800352,13.1413325 8.76799712,13.056 9.344,13.056 Z M9.344,11.744 C8.99199824,11.744 8.66133488,11.6533342 8.352,11.472 C8.04266512,11.2906658 7.79733424,11.0453349 7.616,10.736 C7.43466576,10.4266651 7.344,10.0960018 7.344,9.744 C7.344,9.39199824 7.43466576,9.06133488 7.616,8.752 C7.79733424,8.44266512 8.04266512,8.19733424 8.352,8.016 C8.66133488,7.83466576 8.99199824,7.744 9.344,7.744 C9.69600176,7.744 10.0239985,7.83466576 10.328,8.016 C10.6320015,8.19733424 10.8719991,8.43999848 11.048,8.744 C11.2240009,9.04800152 11.312,9.38133152 11.312,9.744 C11.312,10.1066685 11.2240009,10.4399985 11.048,10.744 C10.8719991,11.0480015 10.6320015,11.2906658 10.328,11.472 C10.0239985,11.6533342 9.69600176,11.744 9.344,11.744 Z M14.656,11.744 C14.3039982,11.744 13.9733349,11.6533342 13.664,11.472 C13.3546651,11.2906658 13.1093342,11.0453349 12.928,10.736 C12.7466658,10.4266651 12.656,10.0960018 12.656,9.744 C12.656,9.39199824 12.7466658,9.06133488 12.928,8.752 C13.1093342,8.44266512 13.3546651,8.19733424 13.664,8.016 C13.9733349,7.83466576 14.3039982,7.744 14.656,7.744 C15.0080018,7.744 15.3386651,7.83466576 15.648,8.016 C15.9573349,8.19733424 16.2026658,8.44266512 16.384,8.752 C16.5653342,9.06133488 16.656,9.39199824 16.656,9.744 C16.656,10.0960018 16.5653342,10.4266651 16.384,10.736 C16.2026658,11.0453349 15.9573349,11.2906658 15.648,11.472 C15.3386651,11.6533342 15.0080018,11.744 14.656,11.744 Z" id="group---material" fill="#000000"></path>
                    </g>
                </g>
            </g>
        </g>
    </g>
</svg>